<svg xmlns:dc="http://purl.org/dc/elements/1.1/" xmlns:cc="http://creativecommons.org/ns#" xmlns:rdf="http://www.w3.org/1999/02/22-rdf-syntax-ns#" xmlns:svg="http://www.w3.org/2000/svg" xmlns="http://www.w3.org/2000/svg" xmlns:sodipodi="http://sodipodi.sourceforge.net/DTD/sodipodi-0.dtd" xmlns:inkscape="http://www.inkscape.org/namespaces/inkscape" version="1.1" x="0px" y="0px" viewBox="0 0 32 40" style="enable-background:new 0 0 32 32;" xml:space="preserve"><style type="text/css">
	.st0{fill:none;stroke:#000000;stroke-linecap:round;stroke-linejoin:round;stroke-miterlimit:10;}
	.st1{fill:none;stroke:#010101;stroke-linecap:round;stroke-linejoin:round;stroke-miterlimit:10;}
	.st2{fill:none;stroke:#060707;stroke-linecap:round;stroke-linejoin:round;stroke-miterlimit:10;}
	.st3{fill:#010101;}
	.st4{fill:#FFFFFF;stroke:#010101;stroke-linecap:round;stroke-linejoin:round;stroke-miterlimit:10;}
</style><path style="" d="M 24.019531 2.2871094 C 23.028734 2.232547 22.050969 2.7177812 21.511719 3.6132812 L 17.332031 10.5625 C 17.325031 10.5745 17.324329 10.589563 17.318359 10.601562 L 13.916016 11.539062 C 13.811016 11.330063 13.57675 11.212438 13.34375 11.273438 L 10.941406 11.9375 C 10.918406 11.7665 10.882847 11.605266 10.839844 11.447266 C 10.520844 10.288265 9.7696093 9.3234688 8.7246094 8.7304688 C 7.6786094 8.1374688 6.4636875 7.9866875 5.3046875 8.3046875 C 2.9126875 8.9636875 1.5031094 11.447844 2.1621094 13.839844 C 2.7131094 15.832844 4.5279531 17.144531 6.5019531 17.144531 C 6.8979531 17.144531 7.2992656 17.091421 7.6972656 16.982422 L 14.40625 15.130859 C 14.53425 15.094859 14.641031 15.011484 14.707031 14.896484 C 14.773031 14.781484 14.790859 14.643625 14.755859 14.515625 L 14.751953 14.505859 C 15.022954 14.522859 15.273094 14.627297 15.496094 14.779297 C 15.884094 15.101297 16.086062 15.5765 16.039062 16.0625 L 16.029297 16.056641 C 15.908297 15.999641 15.771484 15.997922 15.646484 16.044922 C 15.522484 16.091922 15.423141 16.185641 15.369141 16.306641 L 12.5 22.646484 C 11.477 24.906484 12.481189 27.577609 14.742188 28.599609 C 15.343187 28.871609 15.970797 29.001 16.591797 29 C 18.305797 29 19.946266 28.016469 20.697266 26.355469 C 21.720266 24.095469 20.715075 21.425344 18.455078 20.402344 C 18.305078 20.334344 18.149375 20.274609 17.984375 20.224609 L 19.011719 17.955078 C 19.066719 17.834078 19.072391 17.697266 19.025391 17.572266 C 18.989391 17.477266 18.919891 17.402703 18.837891 17.345703 L 20.251953 14.220703 C 20.265953 14.190703 20.265437 14.157953 20.273438 14.126953 L 27.896484 11.033203 L 27.898438 11.033203 C 29.189384 10.510673 29.883515 9.1022422 29.513672 7.7578125 C 29.478672 7.6298125 29.394297 7.5230312 29.279297 7.4570312 C 29.163297 7.3920312 29.026438 7.3742031 28.898438 7.4082031 L 22.544922 9.1601562 L 25.248047 3.1894531 C 25.303047 3.0684531 25.308719 2.9286875 25.261719 2.8046875 C 25.214719 2.6806875 25.121 2.5813438 25 2.5273438 C 24.6825 2.3843438 24.349796 2.3052969 24.019531 2.2871094 z M 24.101562 3.2988281 L 21.291016 9.5058594 L 18.705078 10.21875 L 22.369141 4.1289062 C 22.737141 3.5179063 23.427563 3.2108281 24.101562 3.2988281 z M 28.613281 8.5273438 C 28.598281 9.2083437 28.183438 9.8403752 27.523438 10.109375 L 16.669922 14.511719 C 16.518922 14.305719 16.331859 14.141142 16.130859 13.994141 C 16.075859 13.949141 16.025797 13.90233 15.966797 13.861328 C 15.935797 13.840328 15.899236 13.831359 15.865234 13.818359 C 15.499234 13.615359 15.089109 13.498047 14.662109 13.498047 C 14.606109 13.498047 14.551141 13.499906 14.494141 13.503906 L 14.216797 12.496094 L 28.613281 8.5273438 z M 6.5 9.1425781 C 8.036 9.1425781 9.4470004 10.162892 9.875 11.712891 C 9.946 11.969891 9.9813271 12.247892 9.9863281 12.587891 C 9.9883281 12.741891 10.063499 12.889422 10.1875 12.982422 C 10.3105 13.075422 10.469141 13.104454 10.619141 13.064453 L 13.126953 12.373047 L 13.658203 14.300781 L 7.4335938 16.015625 C 5.5675937 16.529625 3.6399531 15.433219 3.1269531 13.574219 C 2.8779531 12.673219 2.9950312 11.729015 3.4570312 10.916016 C 3.9190313 10.103016 4.6693125 9.5185313 5.5703125 9.2695312 C 5.8803125 9.1835312 6.194 9.1425781 6.5 9.1425781 z M 6.3027344 10.154297 C 6.1400625 10.166207 5.9786093 10.194281 5.8183594 10.238281 C 5.1733593 10.416281 4.6375937 10.834062 4.3085938 11.414062 C 3.9785937 11.995062 3.8942656 12.671453 4.0722656 13.314453 C 4.3782656 14.421453 5.386375 15.150391 6.484375 15.150391 C 6.703375 15.150391 6.9244843 15.121547 7.1464844 15.060547 C 8.4744843 14.693547 9.2575781 13.313375 8.8925781 11.984375 C 8.7145781 11.339375 8.2958438 10.803609 7.7148438 10.474609 C 7.2798438 10.227109 6.79075 10.118578 6.3027344 10.154297 z M 6.484375 11.146484 C 6.740375 11.146484 6.9917031 11.211794 7.2207031 11.341797 C 7.5697031 11.539797 7.8197813 11.862047 7.9257812 12.248047 C 8.1467813 13.046047 7.6778594 13.87375 6.8808594 14.09375 C 6.0808594 14.31875 5.2541563 13.842875 5.0351562 13.046875 C 4.8141562 12.248875 5.2840313 11.423125 6.0820312 11.203125 C 6.2150313 11.166125 6.351375 11.146484 6.484375 11.146484 z M 18.076172 12.226562 A 0.4999952 0.4999952 0 0 0 17.714844 12.373047 A 0.4999952 0.4999952 0 0 0 17.714844 13.080078 A 0.4999952 0.4999952 0 0 0 18.421875 13.080078 A 0.4999952 0.4999952 0 0 0 18.421875 12.373047 A 0.4999952 0.4999952 0 0 0 18.076172 12.226562 z M 18.957031 14.664062 L 17.943359 16.902344 L 16.992188 16.470703 C 17.069188 16.131703 17.067859 15.789031 17.005859 15.457031 L 18.957031 14.664062 z M 16.072266 17.173828 L 17.894531 17.998047 L 16.824219 20.367188 C 16.760219 20.508187 16.763891 20.670641 16.837891 20.806641 C 16.909891 20.943642 17.041359 21.037453 17.193359 21.064453 C 17.528359 21.123453 17.797016 21.2025 18.041016 21.3125 C 19.799016 22.1095 20.582109 24.187313 19.787109 25.945312 C 18.991109 27.702313 16.914297 28.483453 15.154297 27.689453 C 13.396297 26.893453 12.615156 24.814642 13.410156 23.056641 L 16.072266 17.173828 z M 16.671875 22.019531 C 16.347875 22.008781 16.021484 22.061691 15.708984 22.179688 C 15.083984 22.414687 14.5875 22.881234 14.3125 23.490234 C 14.0365 24.098234 14.015 24.777344 14.25 25.402344 C 14.485 26.027344 14.949594 26.521875 15.558594 26.796875 C 15.887594 26.945875 16.237891 27.023438 16.587891 27.023438 C 16.885891 27.023438 17.183704 26.969327 17.470703 26.861328 C 18.095703 26.626328 18.592188 26.159781 18.867188 25.550781 C 19.143187 24.943781 19.164687 24.263672 18.929688 23.638672 C 18.694688 23.013672 18.230094 22.519142 17.621094 22.244141 C 17.317594 22.106142 16.995875 22.030281 16.671875 22.019531 z M 16.589844 23.019531 C 16.799844 23.019531 17.010984 23.065301 17.208984 23.154297 C 17.574984 23.320297 17.853141 23.617187 17.994141 23.992188 C 18.136141 24.367188 18.122032 24.773672 17.957031 25.138672 C 17.791031 25.503672 17.494141 25.782828 17.119141 25.923828 C 16.744141 26.063828 16.333703 26.049763 15.970703 25.884766 C 15.605703 25.719766 15.3285 25.423828 15.1875 25.048828 C 15.0465 24.673828 15.059609 24.267344 15.224609 23.902344 C 15.389609 23.537344 15.6875 23.258187 16.0625 23.117188 C 16.2345 23.053187 16.411844 23.019531 16.589844 23.019531 z " fill="#000000" stroke="none"/><text x="0" y="47" fill="#000000" font-size="5px" font-weight="bold" font-family="'Helvetica Neue', Helvetica, Arial-Unicode, Arial, Sans-serif">Created by Jemis mali</text><text x="0" y="52" fill="#000000" font-size="5px" font-weight="bold" font-family="'Helvetica Neue', Helvetica, Arial-Unicode, Arial, Sans-serif">from the Noun Project</text></svg>