<?xml version="1.0" standalone="no"?>
<!DOCTYPE svg PUBLIC "-//W3C//DTD SVG 20010904//EN"
 "http://www.w3.org/TR/2001/REC-SVG-20010904/DTD/svg10.dtd">
<svg version="1.0" xmlns="http://www.w3.org/2000/svg"
 width="700.000000pt" height="700.000000pt" viewBox="0 0 700.000000 700.000000"
 preserveAspectRatio="xMidYMid meet">
<metadata>
Created by potrace 1.11, written by Peter Selinger 2001-2013
</metadata>
<g transform="translate(0.000000,700.000000) scale(0.100000,-0.100000)"
fill="#000000" stroke="none">
<path d="M3309 6856 c-2 -2 -44 -6 -94 -9 -210 -14 -518 -75 -729 -143 -748
-244 -1356 -702 -1783 -1344 -115 -173 -238 -399 -294 -543 -11 -29 -27 -65
-34 -82 -27 -59 -105 -302 -134 -420 -71 -283 -96 -494 -96 -810 0 -269 14
-429 56 -640 11 -55 22 -111 25 -125 39 -197 151 -507 266 -735 378 -751 986
-1311 1768 -1628 78 -31 223 -83 260 -92 8 -2 58 -16 110 -30 182 -50 394 -87
590 -103 170 -14 572 -7 690 12 14 3 47 7 74 11 205 26 520 109 738 195 437
173 825 427 1147 750 121 121 160 164 216 235 22 28 42 52 45 55 16 14 105
137 167 230 230 346 387 712 482 1125 11 50 23 108 26 130 3 22 8 46 10 52 2
7 7 43 11 80 3 38 8 71 10 74 24 41 24 735 -1 812 -2 6 -6 35 -9 62 -3 28 -10
75 -16 105 -6 30 -13 70 -16 89 -3 19 -10 45 -15 58 -5 13 -7 23 -5 23 3 0 -9
48 -25 108 -17 59 -31 112 -33 117 -37 149 -175 475 -278 654 -26 46 -48 85
-48 87 0 2 -25 43 -57 91 -383 597 -946 1060 -1604 1321 -242 96 -580 181
-824 207 -33 4 -71 9 -85 12 -30 5 -505 14 -511 9z m486 -389 c11 -3 47 -8 80
-11 33 -4 83 -11 110 -16 28 -5 65 -12 83 -15 81 -13 309 -77 427 -120 244
-88 551 -252 735 -392 444 -339 749 -720 962 -1203 83 -188 169 -460 202 -645
37 -197 51 -356 50 -565 -1 -157 -9 -329 -19 -374 -2 -12 -7 -39 -10 -61 -41
-301 -148 -639 -289 -916 -220 -432 -512 -776 -903 -1066 -62 -46 -115 -83
-117 -83 -2 0 -35 -20 -73 -45 -90 -60 -383 -204 -507 -250 -236 -87 -478
-143 -746 -172 -84 -9 -477 -10 -555 -1 -496 56 -925 206 -1310 456 -251 163
-426 318 -665 587 -157 178 -355 503 -465 765 -89 212 -179 539 -200 725 -4
33 -9 63 -11 66 -22 38 -22 689 1 729 1 3 6 33 9 68 13 123 67 353 121 517
164 494 458 944 840 1285 90 80 113 99 214 174 236 175 511 320 796 419 105
36 358 102 435 112 25 4 66 11 91 15 26 5 86 12 135 16 49 3 91 8 93 10 5 5
463 -4 486 -9z"/>
<path d="M2195 5553 c-62 -18 -95 -48 -95 -84 0 -23 50 -142 177 -419 61 -132
233 -513 233 -515 0 -1 -71 18 -157 42 -87 24 -166 46 -176 48 -10 2 -91 25
-180 49 -286 80 -411 114 -447 121 -71 13 -106 -45 -103 -172 4 -135 75 -264
188 -336 33 -21 462 -201 635 -267 40 -15 384 -155 528 -215 l54 -22 109 -243
c104 -230 109 -243 93 -261 -23 -25 -15 -64 31 -164 21 -44 55 -118 76 -165
l38 -84 -68 -32 c-127 -59 -215 -134 -287 -245 -223 -343 -100 -802 264 -979
200 -98 443 -92 632 15 128 72 229 183 289 317 39 88 53 149 56 254 4 126 -16
214 -79 349 -20 42 -36 78 -36 80 0 2 -35 82 -79 177 -43 95 -109 241 -146
323 -165 368 -169 374 -228 371 -27 -2 -28 -1 -21 39 13 81 58 145 121 171 53
23 73 19 73 -16 0 -20 7 -34 23 -44 12 -8 114 -40 227 -71 113 -31 230 -63
260 -71 30 -9 87 -24 125 -34 39 -10 162 -45 275 -77 l205 -58 135 1 c118 1
144 4 208 26 279 99 465 359 463 647 -4 494 -505 815 -960 615 -169 -75 -327
-259 -371 -434 -6 -25 -13 -52 -16 -61 -4 -13 -28 -9 -172 33 -195 56 -237 61
-261 32 l-17 -21 -255 71 -256 70 -324 540 c-178 296 -343 560 -366 585 -44
50 -115 93 -187 115 -59 18 -168 17 -231 -1z m235 -163 c21 -10 51 -32 67 -49
21 -20 523 -841 590 -963 2 -3 -32 4 -74 16 -43 13 -125 36 -183 51 -58 15
-111 31 -118 35 -13 6 -41 65 -162 336 -32 72 -77 170 -99 219 -23 48 -41 89
-41 90 0 2 -18 43 -41 92 -56 119 -89 194 -89 201 0 11 114 -10 150 -28z
m-660 -811 c41 -11 82 -22 90 -24 8 -2 139 -38 290 -80 151 -42 309 -85 350
-96 100 -27 313 -86 375 -104 28 -8 174 -48 325 -90 586 -160 571 -155 564
-179 -4 -12 -13 -43 -20 -70 -7 -26 -15 -50 -17 -53 -3 -2 -25 -6 -50 -8 -87
-5 -169 -42 -235 -104 -24 -23 -47 -41 -51 -41 -4 0 -63 23 -132 51 -317 129
-1042 423 -1284 521 -110 44 -216 89 -236 98 -71 37 -128 115 -136 192 l-5 37
49 -15 c26 -8 82 -24 123 -35z m3285 -61 c184 -41 340 -195 390 -385 19 -69
17 -187 -2 -263 -46 -174 -186 -315 -368 -369 -110 -33 -208 -24 -435 39 -102
28 -192 53 -200 55 -8 2 -107 29 -220 61 -113 31 -241 66 -286 78 l-80 21 37
137 c40 147 46 161 59 153 14 -9 371 -105 390 -105 22 0 59 35 65 63 2 12 6
47 9 77 16 182 165 364 350 426 94 32 186 36 291 12z m-1711 -1013 l1 -78 -61
-28 c-34 -16 -66 -29 -71 -29 -8 0 -153 308 -153 324 0 2 64 -21 141 -53 l142
-57 1 -79z m215 -336 c36 -80 77 -170 90 -200 13 -29 37 -83 54 -119 16 -36
39 -87 52 -115 24 -54 51 -113 98 -215 28 -62 49 -109 52 -120 70 -229 13
-442 -157 -586 -252 -214 -649 -138 -801 154 -44 85 -59 138 -62 228 -7 184
83 358 237 463 26 17 90 46 143 63 137 44 141 60 63 228 -94 200 -111 240
-104 248 11 11 250 120 260 118 4 -1 38 -67 75 -147z"/>
<path d="M3136 4045 c-46 -49 -13 -125 53 -125 67 0 97 88 45 129 -36 28 -70
26 -98 -4z"/>
<path d="M4880 4378 c-183 -27 -318 -185 -318 -373 0 -221 179 -387 402 -373
193 12 350 178 348 369 0 75 -9 113 -39 172 -74 147 -231 229 -393 205z m158
-174 c113 -56 154 -183 97 -300 -68 -139 -244 -166 -355 -55 -114 114 -81 295
65 362 58 27 130 24 193 -7z"/>
<path d="M3317 2580 c-196 -50 -321 -258 -271 -453 92 -361 573 -392 718 -46
8 20 18 66 22 102 8 84 -20 185 -73 254 -47 62 -65 77 -140 114 -50 25 -77 32
-140 35 -43 2 -95 -1 -116 -6z m196 -167 c143 -71 165 -269 42 -371 -148 -121
-364 -21 -367 172 -4 165 175 275 325 199z"/>
</g>
</svg>
