<svg xmlns:dc="http://purl.org/dc/elements/1.1/" xmlns:cc="http://creativecommons.org/ns#" xmlns:rdf="http://www.w3.org/1999/02/22-rdf-syntax-ns#" xmlns:svg="http://www.w3.org/2000/svg" xmlns="http://www.w3.org/2000/svg" xmlns:sodipodi="http://sodipodi.sourceforge.net/DTD/sodipodi-0.dtd" xmlns:inkscape="http://www.inkscape.org/namespaces/inkscape" version="1.1" x="0px" y="0px" viewBox="0 0 100 125"><g transform="translate(0,-952.36218)"><path style="text-indent:0;text-transform:none;direction:ltr;block-progression:tb;baseline-shift:baseline;color:#000000;enable-background:accumulate;" d="M 19,7 C 12.396272,7 7,12.39627 7,19 7,25.60373 12.396272,31 19,31 25.603728,31 31,25.60373 31,19 31,12.39627 25.603728,7 19,7 z m 0,4 c 4.441967,0 8,3.55803 8,8 0,4.44197 -3.558033,8 -8,8 -4.441967,0 -8,-3.55803 -8,-8 0,-4.44197 3.558033,-8 8,-8 z m 52,22 c -6.394775,0 -10.741252,2.71933 -14,5.84375 L 57,37 c -1.05e-4,-1.047169 -0.952831,-1.999895 -2,-2 l -16,0 c -1.047169,1.05e-4 -1.999895,0.952831 -2,2 l 0,54 c 1.05e-4,1.047169 0.952831,1.999895 2,2 l 17,0 c 1.047169,-1.05e-4 1.999895,-0.952831 2,-2 l 0,-30 c 0,-2.5311 0.79778,-4.93 1.96875,-6.5625 C 61.13972,52.805 62.5553,52 64,52 l 2,0 c 1.4447,0 2.86028,0.805 4.03125,2.4375 C 71.20222,56.07 72,58.4689 72,61 l 0,30 c 1.05e-4,1.047169 0.952831,1.999895 2,2 l 17,0 c 1.047169,-1.05e-4 1.999895,-0.952831 2,-2 L 93,56 C 93,49.333 91.750122,43.54501 88.1875,39.375 84.624878,35.20499 78.897484,33 71,33 z M 10.8125,35 C 9.8293323,35.092661 8.9957419,36.012485 9,37 l 0,54 c 1.047e-4,1.047169 0.9528311,1.999895 2,2 l 17,0 c 1.047169,-1.05e-4 1.999895,-0.952831 2,-2 l 0,-54 c -1.05e-4,-1.047169 -0.952831,-1.999895 -2,-2 -5.723265,-2e-6 -11.47824,0 -17.1875,0 z M 71,37 c 7.173945,0 11.45548,1.84411 14.125,4.96875 C 87.79452,45.09339 89,49.8455 89,56 l 0,33 -13,0 0,-28 C 76,57.6587 75.00228,54.5244 73.28125,52.125 71.56022,49.7256 68.987299,48 66,48 l -2,0 c -2.987299,0 -5.56022,1.7256 -7.28125,4.125 C 54.99772,54.5244 54,57.6587 54,61 l 0,12 c -0.389457,-2.96e-4 -0.811938,0 -1.1875,0 -1.047341,0.04888 -1.955743,1.046438 -1.906649,2.093769 C 50.954944,76.1411 51.952679,77.049303 53,77 l 1,0 0,4 c -0.389457,-2.96e-4 -0.811938,0 -1.1875,0 -1.047341,0.04888 -1.955743,1.046438 -1.906649,2.093769 C 50.954944,84.1411 51.952679,85.049303 53,85 l 1,0 0,4 -13,0 0,-50 12,0 0,5 c -4.08e-4,0.82264 0.561715,1.616016 1.337958,1.888382 C 55.114201,46.160748 56.04881,45.892541 56.5625,45.25 59.920148,41.06379 63.498184,37 71,37 z m -58,2 13,0 0,34 c -0.389457,-2.96e-4 -0.811938,0 -1.1875,0 -1.047341,0.04888 -1.955743,1.046438 -1.906649,2.093769 C 22.954944,76.1411 23.952679,77.049303 25,77 l 1,0 0,4 c -0.389457,-2.96e-4 -0.811938,0 -1.1875,0 -1.047341,0.04888 -1.955743,1.046438 -1.906649,2.093769 C 22.954944,84.1411 23.952679,85.049303 25,85 l 1,0 0,4 -13,0 z" transform="translate(0,952.36218)" fill="#000000" fill-opacity="1" stroke="none" marker="none" visibility="visible" display="inline" overflow="visible"/></g></svg>