<svg xmlns="http://www.w3.org/2000/svg" xmlns:xlink="http://www.w3.org/1999/xlink" version="1.1" x="0px" y="0px" viewBox="0 0 100 125" style="enable-background:new 0 0 100 100;" xml:space="preserve"><g><polygon points="63.7,31.8 66.8,31.1 66.4,29.7 63.3,31.5  "/><path d="M92.6,48.3c-0.4-1.9-2.4-1.6-3.9-1.7c-0.9-0.1-1.8-0.3-2.7-0.5c0.9-0.7,1.6-1.8,1.6-3c0-2-2.4-1.8-3.7-2   c-2.5-0.3-4.9-1-7.2-2c-2.2-1-4.1-2.4-6.1-3.6c-1.9-1.2-3.9-2-6.2-2.2c-0.6,0-1.1,0-1.7,0l-1.2-1.5c0,0,0,0-0.1-0.1c0,0,0,0,0,0   c0,0-0.1-0.1-0.2-0.1c0,0,0,0,0,0l-3.5-1.1c-0.1,0-0.1,0-0.2,0l-0.9,0.1c0.1-0.7,0.2-1.4,0.2-2.2c-0.1-1.6-0.7-5.4-2.9-5.2   c-1.2,0.1-1.7,1.1-2.2,2c-0.6,1.3-1.3,2.6-2.2,3.8c-1.8,2.6-2.4,3-3.5,3.7c-0.2,0.1-5.2,0.5-8.5,1.1c-3.5,0.6-11.6,6-14,8.3   c-5.4,5-10.8,11.8-15.6,17.6c0,0,0,0,0,0c-0.2,0.1-0.4,0.4-0.3,0.8c0.6,5.4,1.8,7.7,5.3,11.8c1.7,2,2.2,2.2,4.4,3.6   c0.9,0.6,2.1,1.5,3.2,1.1c1.1-0.4,2-1.6,2.6-2.6c0,0,0,0,0,0c4.4-2.7,9.2-5.2,11-10.1c3.1-0.2,6.4-0.7,8.6-3.2c2.3,0,4.7-0.3,7-1   c2.5-0.7,4.6-2,7-2.8c1.2-0.4,2.5-0.3,3.8-0.4c1.2-0.1,2.2-0.7,3.4-0.9c1.3-0.3,2.5,0.5,3.7,0.9c1.3,0.4,2.6,0.6,3.9,0.6   c1.6-0.1,3.2-0.9,4.5-1.9c0.1,0,0.2,0,0.2,0.1c2.6,0.2,5.5-0.3,7.4-2c0.1,0.1,0.3,0.1,0.4,0.1c2.1,0,3.7-0.6,5.5-1.7   C90.9,51.2,92.9,50.1,92.6,48.3z M81,41.6c0,0,3.8,0.7,5.2,0.7c0.1,0.3,0,0.5,0,0.5s-4.1-0.6-5.3-0.8C80.8,42,81,41.6,81,41.6z    M63.4,34.7C63.4,34.7,63.4,34.7,63.4,34.7c0.4,0,0.7,0,1.1,0c0,0.4,0,1.2-0.2,1.7c0.2-0.2,0.6-1.2,0.8-1.7c0.7,0.1,1.4,0.3,2,0.5   c1.8,0.7,3.2,1.6,4.8,2.6c1,0.6,2.3,1.2,3.5,1.8c0,0.1,0.1,1-0.1,1.5c0.2-0.2,0.5-1,0.7-1.3c0.6,0.3,1.3,0.5,1.8,0.7   c0.7,0.3,1.4,0.5,2.1,0.8c0,0.1,0,0.1,0,0.2c0,0.5-0.3,1.2,0.1,1.7c0.2,0.3,0.7,0.5,1,0.6c1.5,0.4,3,0.6,4.5,0.7   c-0.4,0.4-0.8,0.7-1,0.9c-0.6,0.5-1.2,0.5-1.5,0.5c-2.7-0.5-9.4-4.3-13.7-6.2c-2-0.9-3.3-1.8-5.4-2c-0.8-0.1-1.6-0.1-2.4,0   L63.4,34.7z M53.8,36.5l1.1,4.5l0.5,1.6l-4.3-6.9L53.8,36.5z M50.7,34.3l0.8-1.3l3.2,0.5L54,35.3L50.7,34.3z M55.1,36.6l3.2,0   l-2,6.9L55.1,36.6z M55.2,35.4l0.7-1.8l1.8-0.1l0.3,0.8l0.4,1.1l-0.7,0L55.2,35.4z M59.6,36.4l1.7-0.7l0.3-0.1l-4.2,6.7L59.6,36.4z    M62.2,34l-2.7,1.1l-0.6-1.9l2.3-0.6L62.2,34z M57.6,31.4l1.6,0.5L58,32.2l-2.5,0.2l-2.2-0.3l0.9-0.4L57.6,31.4z M53.3,25   c0,0,0.3,0.1,0.3,0.1c-0.1,0.8-2.1,4.5-2.1,4.5s-0.3-0.1-0.4-0.2L53.3,25z M50.8,30.7c0.9,0.5,1.6,1,2.2-0.2   c0.8-1.4,1.1-3.2,1.5-4.7c0.3,0.5,0.5,1.5,0.5,1.9c0.2,1,0.1,2-0.2,3l-0.7,0.1c-0.1,0-0.1,0-0.2,0L51.1,32c0,0,0,0,0,0   c-0.1,0-0.1,0.1-0.2,0.1c0,0,0,0,0,0c0,0-0.1,0.1-0.1,0.1L50,33.7l-2.5,0.1C48.9,32.8,49.9,31.9,50.8,30.7z M69.2,56.1   c-2-0.4-3.8-1.7-5.8-1.1c-1.1,0.3-2,0.8-3.1,0.8c-1.1,0.1-2.1,0-3.2,0.2c-2.4,0.5-4.5,1.8-6.8,2.5c-2.6,0.8-4.6,0.8-7.8,0.7   c0,0,0,0,0,0s-1.4,0-3.7-0.3c0.6,0.5,1.5,0.9,2.4,1.3c-1.9,1.8-4.7,2.1-7.3,2.2c-0.3,0-0.5,0.1-0.6,0.3c-0.2,0.1-0.5,0.3-0.6,0.6   c-1.6,4.7-6.4,7-10.6,9.6c-0.2,0.1-0.3,0.3-0.4,0.5c0,0,0,0,0,0c-0.3,0.4-0.6,1.1-1.1,1.4c-0.7,0.5-1.2,0-1.8-0.4   c-1-0.6-1.9-1.2-2.8-2c-1.6-1.3-1.5-1.3-2.7-3c-2.5-3.4-3.2-4.8-3.6-8.8c4.4-5.4,8.5-11.7,13.7-16.3c1.3-1.1,3-2.7,4.4-3.7   c3.3-2.3,8.5-5.1,10.3-5.6c1.8-0.5,3.3-0.6,5.1-0.6c2.1,0,4.5,0.1,6.5,0.3c0,0,0,0,0,0c0,0,0,0,0,0c0,0,0,0,0,0c0,0,0,0.1,0,0.1   l2.3,3.5c-3.5,0.2-6.1,0.3-9.8,0c0,0,4.7,1.1,9.3,0.8c0.4,0,0.7,0,1-0.1l3.1,4.7c-2.2,0.3-5.4,0.1-7.4,0.3   c-4.4,0.4-5.1-0.5-7.8-0.6c0,0,3.7,1.6,7.9,1.3c2-0.2,4.8,0.5,6.8,0.2c0.2,0,0.3,0,0.3-0.1c-0.9,1.6-0.4,3.4-0.3,3.9   c-1.6,0.3-2.8,0.6-4.5,0.8c-3.3,0.4-4.7-0.1-7.9-0.2c-1.2,0,5.8,1.5,10.6,0.5c1.5-0.3,4-0.7,6.2-0.9c0,0.5,0,1.6-0.3,2.3   c0.3-0.3,1-2,1.2-2.4c0.9,0,1.7,0,2.4,0.1c1.4,0.2,2.8,0.6,4.1,1c0,0.4,0,1.2-0.2,1.8c0.2-0.2,0.6-1.1,0.8-1.6   c0.7,0.2,1.3,0.5,2,0.7c0,0,0,0,0,0c-0.5,1.1-0.8,2.1,0.7,2.7c1.3,0.5,2.9,0.8,4.3,1.2C72.9,56.1,70.9,56.5,69.2,56.1z M75.9,53.2   c0,0-4.6-1.2-5.7-1.6c0,0,0.1-0.3,0.1-0.3s4.3,1.3,5.7,1.5C76.1,53,75.9,53.2,75.9,53.2z M77.1,54.2c0.2-0.4,0.3-0.8,0.2-1.2   c-0.1-1.1-0.4-0.8-1.3-1.1c-2.8-0.9-5.7-1.7-8.5-2.6c-2.5-0.8-5-1.6-7.7-1.3c-1.1,0.2-2.3,0.4-3.4,0.6c-0.2-2.2,0.5-3.2,0.8-3.9   c1.4-0.2,2.8-0.3,4.2-0.3c0.1,0,0.3,0,0.4,0c0,0.5,0,1.6-0.3,2.3c0.3-0.3,0.9-1.7,1.1-2.2c3.2,0.3,6.1,2,9.1,3.3   c0,0.4,0,1.1-0.2,1.6c0.2-0.2,0.5-0.8,0.7-1.4c0.2,0.1,0.3,0.1,0.5,0.2c1,0.4,2.1,0.8,3.2,1.1c-0.7,0.8-0.1,1.6,0.8,2   c1.6,0.8,3.7,1.2,5.5,1.5C80.9,53.8,78.8,54.2,77.1,54.2z M83.7,51.1c0,0-5.6-1.4-6.7-1.8c0,0,0.1-0.3,0.1-0.3s5.3,1.5,6.7,1.7   C83.9,50.9,83.7,51.1,83.7,51.1z M84.6,52.2c0.2-0.3,0.3-0.7,0.4-1.1c0.1-0.5-0.2-1-0.7-1.2c-4-1.1-7.5-1.6-11.3-3   c-3.6-1.4-7.1-3.7-11.1-3.7c-1.4,0-2.9,0.2-4.3,0.5l3.1-4.9c1.2-0.1,2.4,0,3.6,0.2c0,0.5,0,1.5-0.3,2.3c0.3-0.3,0.8-1.4,1.1-2   c3.6,1,6.9,3,10.2,4.7c0.3,0.2,0.7,0.3,1,0.5c0,0.4,0,1.2-0.2,1.7c0.2-0.2,0.5-0.9,0.8-1.5c1.9,0.9,3.8,1.7,5.7,2.4   c-0.1,1.2-0.2,1.8,1,2.2c1.8,0.5,3.8,1,5.6,1.3C88.3,51.5,86.9,52.2,84.6,52.2z M90.5,48.2c0,0-5.4-0.6-6.6-0.9   c0,0,0.1-0.4,0.1-0.4s5.1,0.7,6.5,0.8C90.7,48,90.5,48.2,90.5,48.2z"/><polygon points="60.4,25.6 59.1,25.5 59,29.3 59.4,29.3  "/><polygon points="64.4,26.2 63.3,25.8 61.5,29.9 62,30  "/></g><text x="0" y="115" fill="#000000" font-size="5px" font-weight="bold" font-family="'Helvetica Neue', Helvetica, Arial-Unicode, Arial, Sans-serif">Created by Caio Nery Filho</text><text x="0" y="120" fill="#000000" font-size="5px" font-weight="bold" font-family="'Helvetica Neue', Helvetica, Arial-Unicode, Arial, Sans-serif">from the Noun Project</text></svg>