<svg xmlns="http://www.w3.org/2000/svg" xmlns:xlink="http://www.w3.org/1999/xlink" version="1.1" x="0px" y="0px" viewBox="0 0 66 82.5" enable-background="new 0 0 66 66" xml:space="preserve"><g><path d="M6.12,49.996h20.606l-4.097,8.75h-3.466c-0.553,0-1,0.448-1,1s0.447,1,1,1c8.651,0,19.013,0,27.675,0c0.553,0,1-0.448,1-1   s-0.447-1-1-1h-3.466l-4.097-8.75h20.606c2.866,0,5.198-2.332,5.198-5.199V10.452c0-2.866-2.332-5.198-5.198-5.198H6.12   c-2.867,0-5.199,2.332-5.199,5.198v34.345C0.921,47.664,3.253,49.996,6.12,49.996z M41.163,58.746H24.837l4.097-8.75h8.134   L41.163,58.746z M2.921,10.452c0-1.764,1.436-3.198,3.199-3.198h53.761c1.764,0,3.198,1.435,3.198,3.198v34.345   c0,1.764-1.435,3.199-3.198,3.199c-13.644,0-44.913,0-53.761,0c-1.764,0-3.199-1.435-3.199-3.199V10.452z"/><path d="M6.119,45.996H59.88c0.661,0,1.199-0.538,1.199-1.199V10.452c0-0.661-0.538-1.198-1.199-1.198H6.119   c-0.661,0-1.198,0.538-1.198,1.198v34.345C4.921,45.458,5.458,45.996,6.119,45.996z M6.921,11.254h52.158v32.742H6.921V11.254z"/><path d="M11.754,14.642c-0.553,0-1,0.448-1,1v0.971c0,0.552,0.447,1,1,1s1-0.448,1-1v-0.971   C12.754,15.09,12.307,14.642,11.754,14.642z"/><path d="M17.824,17.613c0.553,0,1-0.448,1-1v-0.971c0-0.552-0.447-1-1-1s-1,0.448-1,1v0.971   C16.824,17.166,17.271,17.613,17.824,17.613z"/><path d="M23.895,17.613c0.553,0,1-0.448,1-1v-0.971c0-0.552-0.447-1-1-1s-1,0.448-1,1v0.971   C22.895,17.166,23.342,17.613,23.895,17.613z"/><path d="M29.965,14.642c-0.553,0-1,0.448-1,1v0.971c0,0.552,0.447,1,1,1s1-0.448,1-1v-0.971   C30.965,15.09,30.518,14.642,29.965,14.642z"/><path d="M36.035,17.613c0.553,0,1-0.448,1-1v-0.971c0-0.552-0.447-1-1-1s-1,0.448-1,1v0.971   C35.035,17.166,35.482,17.613,36.035,17.613z"/><path d="M42.105,17.613c0.553,0,1-0.448,1-1v-0.971c0-0.552-0.447-1-1-1s-1,0.448-1,1v0.971   C41.105,17.166,41.553,17.613,42.105,17.613z"/><path d="M48.176,17.613c0.553,0,1-0.448,1-1v-0.971c0-0.552-0.447-1-1-1s-1,0.448-1,1v0.971   C47.176,17.166,47.623,17.613,48.176,17.613z"/><path d="M54.246,14.642c-0.553,0-1,0.448-1,1v0.971c0,0.552,0.447,1,1,1s1-0.448,1-1v-0.971   C55.246,15.09,54.799,14.642,54.246,14.642z"/><path d="M11.754,20.712c-0.553,0-1,0.448-1,1v0.971c0,0.552,0.447,1,1,1s1-0.448,1-1v-0.971   C12.754,21.16,12.307,20.712,11.754,20.712z"/><path d="M17.824,23.684c0.553,0,1-0.448,1-1v-0.971c0-0.552-0.447-1-1-1s-1,0.448-1,1v0.971   C16.824,23.236,17.271,23.684,17.824,23.684z"/><path d="M23.895,23.684c0.553,0,1-0.448,1-1v-0.971c0-0.552-0.447-1-1-1s-1,0.448-1,1v0.971   C22.895,23.236,23.342,23.684,23.895,23.684z"/><path d="M29.965,20.712c-0.553,0-1,0.448-1,1v0.971c0,0.552,0.447,1,1,1s1-0.448,1-1v-0.971   C30.965,21.16,30.518,20.712,29.965,20.712z"/><path d="M36.035,23.684c0.553,0,1-0.448,1-1v-0.971c0-0.552-0.447-1-1-1s-1,0.448-1,1v0.971   C35.035,23.236,35.482,23.684,36.035,23.684z"/><path d="M42.105,23.684c0.553,0,1-0.448,1-1v-0.971c0-0.552-0.447-1-1-1s-1,0.448-1,1v0.971   C41.105,23.236,41.553,23.684,42.105,23.684z"/><path d="M48.176,23.684c0.553,0,1-0.448,1-1v-0.971c0-0.552-0.447-1-1-1s-1,0.448-1,1v0.971   C47.176,23.236,47.623,23.684,48.176,23.684z"/><path d="M54.246,20.712c-0.553,0-1,0.448-1,1v0.971c0,0.552,0.447,1,1,1s1-0.448,1-1v-0.971   C55.246,21.16,54.799,20.712,54.246,20.712z"/><g><path d="M13.984,34.821V32.92l7.106-3.289v1.72l-5.311,2.399v0.166l5.311,2.459v1.72L13.984,34.821z"/><path d="M41.863,27.625h1.509l-6.533,14h-1.509L41.863,27.625z"/><path d="M52.017,32.92v1.901l-7.106,3.274v-1.72l5.31-2.459V33.75l-5.31-2.399v-1.72L52.017,32.92z"/></g><path d="M23.231,38.849c0-0.619,0.481-1.116,1.116-1.116c0.62,0,1.132,0.481,1.132,1.116c0,0.634-0.51,1.132-1.132,1.132   C23.718,39.981,23.231,39.474,23.231,38.849z"/><path d="M27.456,38.849c0-0.619,0.481-1.116,1.116-1.116c0.62,0,1.132,0.481,1.132,1.116c0,0.634-0.51,1.132-1.132,1.132   C27.942,39.981,27.456,39.474,27.456,38.849z"/><path d="M31.681,38.849c0-0.619,0.481-1.116,1.116-1.116c0.62,0,1.132,0.481,1.132,1.116c0,0.634-0.51,1.132-1.132,1.132   C32.167,39.981,31.681,39.474,31.681,38.849z"/></g></svg>