<svg xmlns="http://www.w3.org/2000/svg" xmlns:xlink="http://www.w3.org/1999/xlink" version="1.1" x="0px" y="0px" viewBox="0 0 64 80" style="enable-background:new 0 0 64 64;" xml:space="preserve"><g><path d="M60,49h-5.142c-0.447-1.721-1.999-3-3.858-3v-7.026C51.838,39.609,52.87,40,54,40c2.757,0,5-2.243,5-5   c0-0.313-0.032-0.628-0.096-0.943C60.215,33.128,61,31.638,61,30c0-1.411-0.584-2.717-1.602-3.652C59.79,25.624,60,24.817,60,24   c0-1.241-0.466-2.422-1.298-3.336C58.9,20.123,59,19.566,59,19c0-2.56-1.933-4.676-4.416-4.966C53.809,12.215,52.019,11,50,11   s-3.809,1.215-4.584,3.034C42.933,14.324,41,16.44,41,19c0,0.566,0.1,1.123,0.298,1.664c-0.524,0.575-0.882,1.262-1.091,1.997   C38.983,21.615,37.544,21,36,21c-1.904,0-3.652,0.922-5.027,2.455c-0.128-1.34-0.724-2.62-1.68-3.576L26.414,17H31v-2.014   c0-0.938-0.467-1.833-1.249-2.393c-3.617-2.592-6.535-6.087-8.436-10.109C20.882,1.568,19.994,1,19,1s-1.882,0.568-2.315,1.484   c-1.9,4.022-4.818,7.518-8.437,10.109C7.467,13.153,7,14.048,7,14.986V17h4.586l-2.879,2.879C7.622,20.964,7,22.466,7,24v1h4.586   l-2.879,2.879C7.622,28.964,7,30.466,7,32v1h11v4c-2.56,0-4.676,1.933-4.966,4.416C11.215,42.191,10,43.981,10,46   c0,1.105,0.369,2.167,0.997,3C9.344,49.002,8,50.347,8,52c0,0.552-0.448,1-1,1H4c-1.654,0-3,1.346-3,3s1.346,3,3,3h5.184   C9.072,59.314,9,59.648,9,60c0,1.654,1.346,3,3,3h39c1.654,0,3-1.346,3-3s-1.346-3-3-3h-2h-1c-0.552,0-1-0.448-1-1s0.448-1,1-1h12   c1.654,0,3-1.346,3-3S61.654,49,60,49z M52.71,49H39.295c0.236-0.396,0.593-0.718,1.052-0.878l0.694-0.242l-0.024-0.735   C41.015,47.081,41.008,47.019,41,47c0-1.654,1.346-3,3-3c1.068,0,2.064,0.59,2.6,1.539l0.237,0.421l0.478,0.075   c0.77,0.122,1.4,0.689,1.605,1.446l0.294,1.086l1.044-0.42C51.22,47.763,52.229,48.209,52.71,49z M37,42.905   c2.23-0.385,4.173-2.035,5.444-4.413C43.369,39.428,44.642,40,46,40c1.13,0,2.162-0.391,3-1.026v5.592   c-0.284-0.166-0.582-0.31-0.904-0.402C47.166,42.818,45.636,42,44,42c-2.601,0-4.744,1.996-4.979,4.536   c-0.94,0.536-1.619,1.429-1.89,2.464H37V42.905z M43.129,21.679l0.649-0.524l-0.399-0.732C43.128,19.96,43,19.481,43,19   c0-1.654,1.346-3,2.935-3.003l0.971,0.05l0.2-0.786C47.445,13.93,48.636,13,50,13s2.555,0.93,2.895,2.261l0.2,0.786l0.812-0.034   C53.96,16.011,54.013,16.005,54,16c1.654,0,3,1.346,3,3c0,0.481-0.128,0.96-0.379,1.422l-0.399,0.732l0.649,0.524   C57.589,22.258,58,23.104,58,24c0,0.888-0.395,1.538-0.726,1.928l-0.765,0.901l1.016,0.604C58.448,27.985,59,28.944,59,30   c0,1.151-0.652,2.183-1.704,2.69l-0.823,0.398l0.323,0.855C56.932,34.303,57,34.658,57,35c0,1.654-1.346,3-3,3s-3-1.346-3-3v-2.648   l3.781-4.727l-1.563-1.25L51,29.148V19h-2v6.148l-2.219-2.773l-1.563,1.25L49,28.352V35c0,1.654-1.346,3-3,3   c-1.123,0-2.152-0.647-2.662-1.631C43.762,35.028,44,33.552,44,32c0-2.779-0.759-5.313-2-7.251V24   C42,23.104,42.411,22.258,43.129,21.679z M36,23c3.309,0,6,4.037,6,9c0,4.451-2.167,8.147-5,8.865v-7.513l3.781-4.727l-1.563-1.25   L37,30.148V27h-2v7.697l-2.168-3.252l-1.664,1.109L35,38.303v2.562c-2.833-0.717-5-4.414-5-8.865C30,27.037,32.691,23,36,23z    M29.834,25c-0.428,0.711-0.784,1.503-1.072,2.347L26.414,25H29.834z M10.121,29.293L14.414,25H16v-2H9.135   c0.175-0.641,0.514-1.234,0.986-1.707L14.414,17H16v-2H9v-0.014c0-0.299,0.15-0.579,0.413-0.768   c3.895-2.788,7.034-6.551,9.08-10.879c0.197-0.42,0.816-0.42,1.014,0c2.046,4.328,5.186,8.091,9.079,10.879   C28.85,14.407,29,14.688,29,14.986L22,15v2h1.586l4.293,4.293c0.473,0.473,0.812,1.066,0.986,1.707H22v2h1.586l4.293,4.293   c0.112,0.112,0.214,0.23,0.31,0.353c-0.07,0.442-0.122,0.893-0.152,1.354H9.135C9.31,30.359,9.648,29.766,10.121,29.293z M20,33   h8.037c0.339,5.142,3.261,9.266,6.963,9.905V49h-4.016C31.631,48.14,32,47.093,32,46c0-2.757-2.243-5-5-5   c-0.313,0-0.629,0.032-0.943,0.096C25.128,39.785,23.639,39,22,39c-0.007,0-0.015,0-0.021,0c-0.519-0.691-1.206-1.223-1.979-1.566   V33z M14.261,43.105l0.786-0.2l-0.034-0.812c-0.002-0.048-0.007-0.096-0.012-0.096c0,0-0.001,0.001-0.001,0.002   c0-1.654,1.346-3,3-3c1.071,0,2.067,0.591,2.602,1.542l0.421,0.584l0.677-0.095C21.798,41.018,21.897,41,22,41   c1.152,0,2.183,0.652,2.69,1.703l0.398,0.826l0.857-0.326C28.003,42.423,30.001,44.001,30,46c0,0.86-0.37,1.681-1.017,2.25   L28.404,49H13.717l-0.701-0.75C12.37,47.681,12,46.86,12,46C12,44.636,12.93,43.445,14.261,43.105z M60,53H48c-1.654,0-3,1.346-3,3   c0,0.352,0.072,0.686,0.184,1H43v2h5h1h2c0.552,0,1,0.448,1,1s-0.448,1-1,1H12c-0.552,0-1-0.448-1-1s0.448-1,1-1h3h3v-2h-3h-3H4   c-0.552,0-1-0.448-1-1s0.448-1,1-1h3c1.654,0,3-1.346,3-3c0-0.552,0.448-1,1-1h49c0.552,0,1,0.448,1,1S60.552,53,60,53z"/><path d="M24,55.5c0-1.379-1.121-2.5-2.5-2.5H18v2h3.5c0.275,0,0.5,0.225,0.5,0.5c0,1.379,1.121,2.5,2.5,2.5H28v-2h-3.5   C24.225,56,24,55.775,24,55.5z"/></g></svg>