<svg xmlns="http://www.w3.org/2000/svg" viewBox="0 0 512 640" x="0px" y="0px"><path d="M256,464a40.045,40.045,0,0,0,40,40H440a40.045,40.045,0,0,0,40-40V336a40.045,40.045,0,0,0-40-40H367.2A40.069,40.069,0,0,0,328,264H296a40.045,40.045,0,0,0-40,40ZM464,336v.022A39.788,39.788,0,0,0,440,328H368V312h72A24.028,24.028,0,0,1,464,336ZM272,304a24.028,24.028,0,0,1,24-24h32a24.028,24.028,0,0,1,24,24v32a8,8,0,0,0,8,8h80a24.028,24.028,0,0,1,24,24v96a24.028,24.028,0,0,1-24,24H296a24.028,24.028,0,0,1-24-24Z"/><path d="M296,248H440a40.045,40.045,0,0,0,40-40V80a40.045,40.045,0,0,0-40-40H367.2A40.069,40.069,0,0,0,328,8H296a40.045,40.045,0,0,0-40,40V208A40.045,40.045,0,0,0,296,248ZM464,80v.022A39.788,39.788,0,0,0,440,72H368V56h72A24.028,24.028,0,0,1,464,80ZM272,48a24.028,24.028,0,0,1,24-24h32a24.028,24.028,0,0,1,24,24V80a8,8,0,0,0,8,8h80a24.028,24.028,0,0,1,24,24v96a24.028,24.028,0,0,1-24,24H296a24.028,24.028,0,0,1-24-24Z"/><path d="M40,16a8,8,0,0,0-8,8V488a8,8,0,0,0,16,0V392H200a8,8,0,0,0,0-16H48V136H200a8,8,0,0,0,0-16H48V24A8,8,0,0,0,40,16Z"/><text x="0" y="527" fill="#000000" font-size="5px" font-weight="bold" font-family="'Helvetica Neue', Helvetica, Arial-Unicode, Arial, Sans-serif">Created by iconixar</text><text x="0" y="532" fill="#000000" font-size="5px" font-weight="bold" font-family="'Helvetica Neue', Helvetica, Arial-Unicode, Arial, Sans-serif">from the Noun Project</text></svg>