<?xml version="1.0" encoding="UTF-8" standalone="no"?>
<svg
   xmlns:dc="http://purl.org/dc/elements/1.1/"
   xmlns:cc="http://creativecommons.org/ns#"
   xmlns:rdf="http://www.w3.org/1999/02/22-rdf-syntax-ns#"
   xmlns:svg="http://www.w3.org/2000/svg"
   xmlns="http://www.w3.org/2000/svg"
   xmlns:sodipodi="http://sodipodi.sourceforge.net/DTD/sodipodi-0.dtd"
   xmlns:inkscape="http://www.inkscape.org/namespaces/inkscape"
   data-name="Layer 1"
   viewBox="0 0 128 160"
   x="0px"
   y="0px"
   version="1.1"
   id="svg219"
   sodipodi:docname="about-icon.svg"
   inkscape:version="1.0.2 (e86c870879, 2021-01-15)">
  <metadata
     id="metadata225">
    <rdf:RDF>
      <cc:Work
         rdf:about="">
        <dc:format>image/svg+xml</dc:format>
        <dc:type
           rdf:resource="http://purl.org/dc/dcmitype/StillImage" />
      </cc:Work>
    </rdf:RDF>
  </metadata>
  <defs
     id="defs223" />
  <sodipodi:namedview
     pagecolor="#ffffff"
     bordercolor="#666666"
     borderopacity="1"
     objecttolerance="10"
     gridtolerance="10"
     guidetolerance="10"
     inkscape:pageopacity="0"
     inkscape:pageshadow="2"
     inkscape:window-width="2192"
     inkscape:window-height="1169"
     id="namedview221"
     showgrid="false"
     inkscape:zoom="6.1125"
     inkscape:cx="64"
     inkscape:cy="80"
     inkscape:window-x="0"
     inkscape:window-y="27"
     inkscape:window-maximized="1"
     inkscape:current-layer="svg219" />
  <title
     id="title199">miscellaneous 57 FINAL</title>
  <path
     d="M126.87451,91.98029,90.1189,74.24182l.00122-.0249V66.01111a32.75247,32.75247,0,0,0,2.16016-4.6618l.34-2.72406c1.31421-1.4892,9.40936-11.54779,5.288-29.12994-2.91925-12.45551-13.86139-17.23157-23.87842-17.67V8.98486a2.00006,2.00006,0,0,0-4,0V119.01514a2.00006,2.00006,0,0,0,4,0V92.07959A18.03675,18.03675,0,0,0,84.814,86.93384a17.80794,17.80794,0,0,0,4.79321-8.52448L124,95.00745V117.983a2.00006,2.00006,0,0,0,4,0V93.76544A1.98393,1.98393,0,0,0,126.87451,91.98029ZM86.12012,74.21692a13.86854,13.86854,0,0,1-4.13477,9.91022,14.04547,14.04547,0,0,1-7.95557,3.94275V78.55615A19.15351,19.15351,0,0,0,86.12012,71.7428Zm2.31055-13.97876C87.82245,61.8349,83.221,73.08478,74.02979,74.55255V33.81165a41.32147,41.32147,0,0,0,10.6543-3.66217c6.05469,4.69562,3.40283,15.78723,3.37451,15.90106a1.9644,1.9644,0,0,0-.05029.65808l.87939,9.60162Zm-2.58594-34.1015a2.01281,2.01281,0,0,0-1.99756-.03009,40.06728,40.06728,0,0,1-9.81738,3.66779V15.79974c5.66644.28864,17.12781,2.41516,19.98242,14.59491,2.2915,9.776.42529,16.85089-1.55078,21.07306l-.44092-4.80414C92.53076,44.34045,94.88086,31.48785,85.84473,26.13666Z"
     id="path201" />
  <path
     d="M110,108.65912a1.98492,1.98492,0,1,0,0-3.96973H96a1.98492,1.98492,0,1,0,0,3.96973Z"
     id="path203" />
  <path
     d="M17,42.55865H49a1.98492,1.98492,0,1,0,0-3.96973H17a1.98492,1.98492,0,1,0,0,3.96973Z"
     id="path205" />
  <path
     d="M17,52.48291H49a1.98492,1.98492,0,1,0,0-3.96973H17a1.98492,1.98492,0,1,0,0,3.96973Z"
     id="path207" />
  <path
     d="M17,62.40717H49a1.98492,1.98492,0,1,0,0-3.96973H17a1.98492,1.98492,0,1,0,0,3.96973Z"
     id="path209" />
  <path
     d="M17,72.33142H49a1.98492,1.98492,0,1,0,0-3.96973H17a1.98492,1.98492,0,1,0,0,3.96973Z"
     id="path211" />
  <path
     d="M10,83.24811H39.272l16.583,16.4574a2.01065,2.01065,0,0,0,2.1792.4303A1.98439,1.98439,0,0,0,59.269,98.30212V82.686A9.93053,9.93053,0,0,0,66,73.32385V37.59656A9.97343,9.97343,0,0,0,56,27.6723H10A9.97343,9.97343,0,0,0,0,37.59656V73.32385A9.97347,9.97347,0,0,0,10,83.24811ZM4,37.59656A5.984,5.984,0,0,1,10,31.642H56a5.984,5.984,0,0,1,6,5.95459V73.32385a5.9298,5.9298,0,0,1-2.731,4.97589V75.57813a2.00006,2.00006,0,0,0-4,0V93.51007l-18.355-18.21545a2.01008,2.01008,0,0,0-2.82812,0,1.97352,1.97352,0,0,0,0,2.8067l1.186,1.17706H10a5.98394,5.98394,0,0,1-6-5.95453Z"
     id="path213" />
</svg>
