<svg xmlns="http://www.w3.org/2000/svg" xmlns:xlink="http://www.w3.org/1999/xlink" xml:space="preserve" version="1.1" style="shape-rendering:geometricPrecision;text-rendering:geometricPrecision;image-rendering:optimizeQuality;" viewBox="0 0 100 125" x="0px" y="0px" fill-rule="evenodd" clip-rule="evenodd"><defs><style type="text/css">
   
    .fil0 {fill:black;fill-rule:nonzero}
   
  </style></defs><g><path class="fil0" d="M67.83 39.06l-13.93 -8.45c-2.41,-1.47 -5.39,-1.47 -7.8,0l-13.94 8.44 0 27.96c0,1.88 1.61,3.49 3.49,3.49l5.72 0 0 -14.87c0,-2.75 2.25,-5 5,-5l7.25 0c2.76,0 5,2.24 5,5l0 14.87 5.73 0c1.89,0 3.48,-1.6 3.48,-3.49l0 -27.95zm-23.12 31.44l10.58 0 0 -14.87c0,-0.92 -0.75,-1.67 -1.67,-1.67l-7.25 0c-0.91,0 -1.66,0.75 -1.66,1.67l0 14.87zm26.46 -29.42l0 25.93c0,3.71 -3.11,6.82 -6.82,6.82 -9.57,0 -19.14,0 -28.7,0 -3.71,0 -6.82,-3.1 -6.82,-6.82l0 -25.94 -3.79 2.29c-1.87,1.12 -3.57,-1.72 -1.71,-2.84l21.03 -12.74c3.49,-2.14 7.79,-2.13 11.27,-0.01l21.04 12.77c1.86,1.12 0.16,3.96 -1.72,2.83l-3.78 -2.29zm-46.06 -28.55c-1.81,1.22 -3.66,-1.54 -1.85,-2.76 8,-5.36 17.11,-8.1 26.74,-8.1 26.7,0 48.33,21.64 48.33,48.33 0,26.69 -21.63,48.33 -48.33,48.33 -26.69,0 -48.33,-21.64 -48.33,-48.33 0,-9.62 2.87,-19.04 8.25,-27.02 1.23,-1.81 3.99,0.05 2.76,1.86 -5.04,7.47 -7.68,16.15 -7.68,25.16 0,24.85 20.15,45 45,45 24.85,0 45,-20.15 45,-45 0,-24.85 -20.15,-45 -45,-45 -8.95,0 -17.44,2.55 -24.89,7.53z"/></g></svg>