<svg xmlns="http://www.w3.org/2000/svg" xmlns:xlink="http://www.w3.org/1999/xlink" version="1.1" x="0px" y="0px" viewBox="0 0 90 112.5" style="enable-background:new 0 0 90 90;" xml:space="preserve"><g><path d="M73.95703,24.22583H58.0625v-7.20605c0-1.54004-1.25293-2.79297-2.79297-2.79297H34.73047   c-1.54102,0-2.79395,1.25293-2.79395,2.79297v7.20605H16.04297c-3.65527,0-6.62891,2.97363-6.62891,6.62842v38.29102   c0,3.65479,2.97363,6.62793,6.62891,6.62793h57.91406c3.65527,0,6.62891-2.97314,6.62891-6.62793V30.85425   C80.58594,27.19946,77.6123,24.22583,73.95703,24.22583z M78.58594,69.14526c0,2.55176-2.07617,4.62793-4.62891,4.62793H16.04297   c-2.55273,0-4.62891-2.07617-4.62891-4.62793V30.85425c0-2.55225,2.07617-4.62842,4.62891-4.62842h16.89355h1H45v-2H33.93652   v-7.20605c0-0.43701,0.35645-0.79297,0.79395-0.79297h20.53906c0.4375,0,0.79297,0.35596,0.79297,0.79297v7.20605h-6.46094v2   h6.46094h1h16.89453c2.55273,0,4.62891,2.07617,4.62891,4.62842V69.14526z"/><path d="M45,40.57739c-5.31836,0-9.64551,4.32715-9.64551,9.64551S39.68164,59.86841,45,59.86841s9.64551-4.32715,9.64551-9.64551   S50.31836,40.57739,45,40.57739z M45,57.86841c-4.21582,0-7.64551-3.42969-7.64551-7.64551S40.78418,42.57739,45,42.57739   s7.64551,3.42969,7.64551,7.64551S49.21582,57.86841,45,57.86841z"/><path d="M39.27148,50.7561h2c0-2.05615,1.67285-3.729,3.72852-3.729v-2C41.84082,45.0271,39.27148,47.59692,39.27148,50.7561z"/><path d="M45,35.5188c-8.40234,0-15.2373,6.83545-15.2373,15.2373S36.59766,65.99292,45,65.99292s15.2373-6.83496,15.2373-15.23682   S53.40234,35.5188,45,35.5188z M45,63.99292c-7.29883,0-13.2373-5.93799-13.2373-13.23682   c0-7.29932,5.93848-13.2373,13.2373-13.2373s13.2373,5.93799,13.2373,13.2373C58.2373,58.05493,52.29883,63.99292,45,63.99292z"/><path d="M15.44824,41.98511h10.28809V31.69702H15.44824V41.98511z M17.44824,33.69702h6.28809v6.28809h-6.28809V33.69702z"/><polygon points="15.44824,64.59497 17.44824,64.59497 17.44824,47.0271 24.73633,47.0271 24.73633,45.0271 15.44824,45.0271  "/><path d="M71.21387,61.36121c-0.7301-0.49719-1.6106-0.78918-2.55859-0.78918c-2.51367,0-4.55859,2.04492-4.55859,4.55859   s2.04492,4.55859,4.55859,4.55859s4.55859-2.04492,4.55859-4.55859V47.82935h-2V61.36121z M68.65527,67.68921   c-1.41113,0-2.55859-1.14795-2.55859-2.55859s1.14746-2.55859,2.55859-2.55859s2.55859,1.14795,2.55859,2.55859   S70.06641,67.68921,68.65527,67.68921z"/><rect x="71.21387" y="39.77026" width="2" height="5.22949"/></g></svg>